<?xml version="1.0" standalone="no"?>
<!DOCTYPE svg PUBLIC "-//W3C//DTD SVG 20010904//EN"
 "http://www.w3.org/TR/2001/REC-SVG-20010904/DTD/svg10.dtd">
<svg version="1.0" xmlns="http://www.w3.org/2000/svg"
 width="512.000000pt" height="512.000000pt" viewBox="0 0 512.000000 512.000000"
 preserveAspectRatio="xMidYMid meet">
<metadata>
Created by potrace 1.15, written by Peter Selinger 2001-2017
</metadata>
<g transform="translate(0.000000,512.000000) scale(0.100000,-0.100000)"
fill="#000000" stroke="none">
<path d="M1412 4218 c-8 -8 -12 -51 -12 -128 0 -77 4 -120 12 -128 8 -8 65
-12 190 -12 l178 0 0 -523 c0 -393 3 -526 12 -535 17 -17 279 -17 296 0 9 9
12 142 12 535 l0 523 178 0 c125 0 182 4 190 12 17 17 17 239 0 256 -17 17
-1039 17 -1056 0z"/>
<path d="M2998 3884 c-240 -58 -394 -280 -374 -539 20 -247 124 -386 346 -461
83 -28 254 -26 340 4 131 46 243 152 296 281 23 56 28 85 32 187 7 183 -31
289 -142 400 -124 123 -315 173 -498 128z m211 -254 c80 -40 121 -126 121
-250 0 -124 -41 -210 -121 -250 -74 -38 -151 -20 -211 49 -43 51 -61 109 -61
201 0 92 18 150 61 201 60 70 136 88 211 49z"/>
<path d="M1333 2059 c-10 -10 -13 -157 -13 -665 0 -560 2 -653 15 -664 11 -9
95 -11 347 -8 365 5 382 8 501 71 113 60 214 203 254 362 27 106 24 381 -5
488 -59 216 -190 359 -373 408 -67 18 -710 25 -726 8z m588 -279 c156 -29 218
-159 206 -435 -7 -187 -42 -271 -130 -317 -37 -20 -62 -23 -199 -26 l-158 -4
0 396 0 396 114 0 c62 0 138 -5 167 -10z"/>
<path d="M3168 1724 c-240 -58 -394 -280 -374 -539 20 -247 124 -386 346 -461
83 -28 254 -26 340 4 131 46 243 152 296 281 23 56 28 85 32 187 7 183 -31
289 -142 400 -124 123 -315 173 -498 128z m211 -254 c80 -40 121 -126 121
-250 0 -124 -41 -210 -121 -250 -74 -38 -151 -20 -211 49 -43 51 -61 109 -61
201 0 92 18 150 61 201 60 70 136 88 211 49z"/>
</g>
</svg>
